<?xml version="1.0" encoding="UTF-8" standalone="no"?>
<!-- Created with Inkscape (http://www.inkscape.org/) -->

<svg
   xmlns:dc="http://purl.org/dc/elements/1.1/"
   xmlns:cc="http://creativecommons.org/ns#"
   xmlns:rdf="http://www.w3.org/1999/02/22-rdf-syntax-ns#"
   xmlns:svg="http://www.w3.org/2000/svg"
   xmlns="http://www.w3.org/2000/svg"
   xmlns:sodipodi="http://sodipodi.sourceforge.net/DTD/sodipodi-0.dtd"
   xmlns:inkscape="http://www.inkscape.org/namespaces/inkscape"
   version="1.0"
   width="507"
   height="520"
   id="svg2"
   sodipodi:docname="cartefrancedialectes.svg"
   inkscape:version="0.92.2 (5c3e80d, 2017-08-06)">
  <metadata
     id="metadata7">
    <rdf:RDF>
      <cc:Work
         rdf:about="">
        <dc:format>image/svg+xml</dc:format>
        <dc:type
           rdf:resource="http://purl.org/dc/dcmitype/StillImage" />
        <dc:title></dc:title>
      </cc:Work>
    </rdf:RDF>
  </metadata>
  <sodipodi:namedview
     pagecolor="#ffffff"
     bordercolor="#666666"
     borderopacity="1"
     objecttolerance="10"
     gridtolerance="10"
     guidetolerance="10"
     inkscape:pageopacity="0"
     inkscape:pageshadow="2"
     inkscape:window-width="2560"
     inkscape:window-height="1421"
     id="namedview5"
     showgrid="false"
     inkscape:zoom="1.8153846"
     inkscape:cx="439.36223"
     inkscape:cy="242.79"
     inkscape:window-x="0"
     inkscape:window-y="19"
     inkscape:window-maximized="0"
     inkscape:current-layer="layer1" />
  <defs
     id="defs4">
    <inkscape:path-effect
       effect="spiro"
       id="path-effect5099"
       is_visible="true" />
    <inkscape:path-effect
       effect="spiro"
       id="path-effect5095"
       is_visible="true" />
  </defs>
  <path
     id="France-outline"
     d="M 204.3125,99.211183 L 198.65625,98.054933 L 194.75,95.117433 L 195.71875,89.648683 L 200.40625,82.617433 L 208.40625,78.304933 L 218.1875,74.804933 L 233.03125,71.086183 L 241.40625,64.648683 L 249.03125,55.273683 L 254.3125,58.398683 L 254.3125,56.429933 L 250,52.523683 L 250.59375,45.304933 L 250.59375,18.929933 L 259.1875,12.304933 L 270.53125,10.148683 L 280.28125,8.586183 L 286.53125,5.648683 L 289.0625,10.742433 L 289.84375,13.679933 L 288.5,15.804933 L 288.5,19.148683 L 289.65625,21.273683 L 292.40625,21.273683 L 294.34375,23.429933 L 294.9375,25.586183 L 296.5,27.523683 L 298.84375,27.523683 L 301.1875,24.617433 L 306.0625,23.054933 L 308.59375,22.836183 L 309,25.179933 L 310.15625,25.179933 L 310.375,26.367433 L 312.125,27.148683 L 312.3125,34.961183 L 313.09375,37.492433 L 315.84375,37.898683 L 317.1875,39.242433 L 321.09375,37.492433 L 322.46875,39.054933 L 324.8125,38.679933 L 327.9375,42.367433 L 327.75,49.211183 L 329.125,49.211183 L 330.28125,47.273683 L 341.21875,46.679933 L 347.46875,51.554933 L 348.25,53.117433 L 345.3125,55.273683 L 345.3125,57.992433 L 344.34375,58.992433 L 348.0625,59.961183 L 348.65625,63.679933 L 344.75,66.023683 L 344.9375,67.961183 L 352.9375,67.961183 L 355.6875,70.117433 L 358.03125,69.148683 L 362.3125,67.773683 L 364.65625,66.211183 L 364.65625,63.867433 L 364.65625,62.117433 L 366.40625,60.336183 L 368.375,57.429933 L 371.3125,57.429933 L 372.09375,57.992433 L 372.09375,61.523683 L 369.9375,63.461183 L 371.3125,64.648683 L 370.53125,66.586183 L 369.9375,68.742433 L 373.0625,70.711183 L 373.0625,72.461183 L 372.28125,73.242433 L 372.65625,77.742433 L 378.90625,78.523683 L 380.6875,79.679933 L 381.65625,82.211183 L 387.125,82.804933 L 388.6875,83.992433 L 389.46875,87.898683 L 392,88.273683 L 393.5625,89.836183 L 394.34375,93.554933 L 395.53125,93.554933 L 396.6875,92.367433 L 400,92.179933 L 402.34375,90.023683 L 406.84375,90.023683 L 410.375,93.929933 L 413.5,93.929933 L 414.65625,95.117433 L 417.96875,95.117433 L 418.5625,94.148683 L 420.90625,92.179933 L 423.84375,91.992433 L 426.5625,94.336183 L 428.53125,94.336183 L 429.125,93.929933 L 431.0625,93.929933 L 435.15625,95.898683 L 437.125,97.836183 L 437.3125,102.52368 L 440.0625,103.71118 L 440.0625,106.42993 L 441.21875,106.83618 L 443.1875,110.55493 L 446.5,110.14868 L 446.6875,107.80493 L 449.4375,106.64868 C 449.65565,106.77743 451.42823,107.80494 452.34375,107.80493 C 452.36378,107.80493 452.41248,107.80363 452.4375,107.80493 C 452.44093,107.80479 452.46591,107.80494 452.46875,107.80493 C 452.48002,107.8107 452.52058,107.83076 452.53125,107.83618 C 452.55512,107.84316 452.59646,107.85577 452.625,107.86743 C 452.66355,107.8842 452.71729,107.91257 452.75,107.92993 C 453.59437,108.40056 454.55551,110.09675 454.6875,110.33618 L 456.65625,111.71118 L 463.28125,111.52368 L 466.03125,108.99243 L 470.71875,108.58618 L 472.09375,110.74243 L 476,113.08618 L 477.34375,115.02368 L 477.75,114.89868 L 481.46875,113.86743 L 483.59375,113.86743 L 485.15625,115.61743 L 488.09375,113.86743 L 492.40625,116.02368 L 497.28125,116.58618 L 500,118.74243 L 497.28125,119.33618 L 495.53125,124.02368 L 495.90625,127.33618 L 494.15625,129.08618 L 492.59375,129.08618 L 490.625,131.64868 L 490.625,133.99243 L 485.5625,137.67993 L 484.96875,144.33618 L 482.625,151.96118 L 483.21875,157.61743 L 478.125,167.58618 L 478.34375,173.83618 L 480.28125,176.55493 L 478.53125,179.08618 L 478.53125,182.99243 L 477.5625,185.33618 L 477.5625,190.24243 L 476,192.36743 L 477.34375,195.49243 L 479.90625,198.42993 L 477.9375,200.96118 L 477.75,205.27368 L 474.03125,208.21118 L 466.8125,208.39868 L 465.4375,207.21118 L 465.84375,205.08618 L 460.9375,205.86743 L 455.875,211.71118 L 456.0625,212.49243 L 460.75,211.52368 L 462.125,212.89868 L 459.59375,216.02368 L 457.4375,216.99243 L 458.40625,219.33618 L 452.15625,226.55493 L 449.4375,227.92993 L 449.21875,231.64868 L 446.5,234.17993 L 443.5625,235.55493 L 439.28125,237.67993 L 439.65625,247.05493 L 427.5625,258.39868 L 427.34375,259.77368 L 429.3125,260.55493 L 426.375,264.05493 L 426,268.14868 L 429.6875,270.11743 L 430.09375,271.27368 L 427.15625,274.99243 L 428.34375,275.77368 L 428.125,277.74243 L 424.625,278.11743 L 422.28125,279.49243 L 422.28125,283.21118 L 428.71875,283.21118 L 431.25,280.86743 L 435.15625,278.30493 L 433.03125,276.55493 L 432.8125,274.80493 L 434.78125,270.49243 L 436.9375,270.30493 L 438.09375,272.05493 L 442.40625,268.55493 L 446.875,267.77368 L 453.53125,267.77368 L 453.71875,270.30493 L 457.25,274.02368 L 457.25,276.74243 L 455.09375,279.08618 L 455.28125,280.64868 L 459,282.42993 L 459,285.33618 L 459,287.11743 L 460.375,286.33618 L 464.65625,290.80493 L 465.0625,295.11743 L 464.28125,297.05493 L 457.625,299.80493 L 457.53125,303.21118 L 457.4375,306.42993 L 460.375,309.77368 C 460.375,309.77368 463.28125,309.56275 464.0625,309.36743 C 464.06534,309.36744 464.09022,309.36735 464.09375,309.36743 C 464.0967,309.36736 464.12209,309.36728 464.125,309.36743 C 464.12784,309.36739 464.15269,309.36755 464.15625,309.36743 C 464.15608,309.3693 464.1562,309.3917 464.15625,309.39868 C 464.1591,309.39861 464.18393,309.3989 464.1875,309.39868 C 464.19264,309.40331 464.21374,309.42448 464.21875,309.42993 C 464.23155,309.44637 464.26544,309.49673 464.28125,309.52368 C 464.78377,310.59893 464.46875,316.58618 464.46875,316.58618 L 469.75,319.71118 L 470.53125,322.46118 L 473.0625,323.42993 L 470.3125,328.11743 L 471.3125,329.67993 L 470.71875,332.99243 L 465.625,334.96118 L 464.65625,336.11743 L 462.125,337.49243 L 461.9375,339.83618 L 459.78125,339.83618 L 457.625,338.46118 L 451.78125,340.80493 L 451.84375,340.92993 L 453.125,343.74243 L 454.125,345.71118 L 457.03125,346.67993 L 457.8125,352.52368 L 462.90625,355.08618 L 465.625,354.67993 L 467.78125,355.46118 L 468.375,361.11743 L 471.09375,362.49243 L 471.09375,364.24243 L 468.96875,364.05493 L 466.625,366.58618 L 467.1875,369.33618 L 463.6875,373.05493 L 462.90625,374.80493 L 463.875,377.33618 L 465.84375,377.92993 L 467.40625,379.30493 L 464.65625,379.67993 L 464.65625,383.58618 L 468.75,386.11743 L 468.75,389.64868 L 471.6875,389.64868 L 476.78125,391.02368 L 481.84375,395.11743 L 484.78125,395.11743 L 493.96875,391.80493 L 496.875,391.58618 L 497.65625,394.14868 L 498.65625,395.89868 L 499.21875,398.83618 L 498.0625,403.11743 L 493.75,404.49243 L 494.34375,407.42993 L 491.40625,409.96118 L 493.375,414.46118 L 489.84375,416.58618 L 489.65625,418.74243 L 486.15625,418.74243 L 482.25,422.27368 L 477.75,422.64868 L 477.5625,428.71118 L 475.59375,428.30493 L 474.21875,430.08618 L 470.3125,429.30493 L 470.125,433.77368 L 466.8125,437.49243 L 461.15625,438.27368 L 460.75,441.39868 L 459.1875,443.55493 L 456.0625,445.49243 L 460.15625,445.30493 L 460.15625,450.39868 L 457.03125,451.74243 L 454.3125,450.96118 L 453.125,452.74243 L 449.03125,452.74243 L 447.46875,454.08618 L 447.09375,456.64868 L 445.71875,457.61743 L 444.75,456.42993 L 443.5625,456.05493 L 440.625,455.08618 L 438.09375,456.83618 L 438.5,459.36743 L 439.65625,460.55493 L 434.96875,460.33618 L 436.9375,459.36743 L 437.125,457.80493 L 431.0625,457.21118 L 427.5625,459.36743 L 425.59375,460.74243 L 423.4375,460.33618 L 422.46875,456.42993 L 418.96875,454.86743 L 417.96875,453.52368 L 413.28125,451.96118 L 403.71875,451.96118 L 404.90625,450.58618 L 405.6875,448.61743 L 401.375,448.42993 L 404.5,445.71118 L 403.90625,443.92993 L 401,445.11743 L 389.84375,444.92993 L 388.09375,441.21118 L 384.375,439.64868 L 382.03125,441.58618 L 385.5625,444.92993 L 378.90625,446.08618 L 370.53125,444.33618 L 372.46875,441.02368 L 375.40625,441.02368 L 373.84375,439.46118 L 365.625,438.86743 L 359.4375,438.58618 L 357.03125,438.46118 L 352.5625,438.67993 L 352.5625,434.77368 L 349.5625,434.55493 L 346.875,434.36743 L 340.25,439.05493 L 329.6875,447.46118 L 327.9375,449.61743 L 322.46875,449.80493 L 321.6875,451.55493 L 314.65625,453.71118 L 314.53125,454.77368 L 314.28125,456.83618 L 312.3125,458.77368 L 309.375,461.11743 L 306.0625,457.99243 L 304.5,460.55493 L 306.46875,463.46118 L 308.8125,463.27368 L 308.59375,469.71118 L 308.75,475.30493 L 309.1875,492.36743 L 311.9375,493.55493 L 313.5,495.71118 L 313.5,498.83618 L 310.375,498.61743 L 307.8125,495.89868 L 303.71875,495.89868 L 300.78125,496.86743 L 298.84375,499.39868 L 292.96875,500.77368 L 292.78125,503.52368 L 291.625,504.08618 L 290.25,503.11743 L 288.875,503.11743 L 287.3125,505.08618 L 281.84375,500.39868 L 275.40625,498.24243 L 271.3125,499.02368 L 267.96875,503.11743 L 265.625,503.52368 L 262.5,500.77368 L 262.3125,497.27368 L 256.46875,495.71118 L 253.53125,492.96118 L 253.1875,490.89868 L 252.5625,487.30493 L 243.96875,486.11743 L 241.03125,487.30493 L 237.71875,482.02368 L 229.3125,482.42993 L 226,478.11743 L 223.4375,478.11743 L 217.40625,476.96118 L 216.34375,476.36743 L 212.3125,474.02368 L 209.59375,473.61743 L 209.1875,483.21118 L 201.25,482.67993 L 197.46875,482.42993 L 195.71875,481.64868 L 194.34375,483.99243 L 190.625,482.99243 L 187.90625,479.86743 L 181.46875,482.61743 L 178.90625,482.61743 L 175.78125,480.08618 L 175.40625,477.74243 L 171.5,474.80493 L 168.1875,472.83618 L 167.6875,473.11743 L 164.28125,474.99243 L 162.5,475.96118 L 161.53125,474.99243 L 159.59375,475.39868 L 157.4375,476.55493 L 155.46875,474.21118 L 150.40625,470.30493 L 150,466.21118 L 142.59375,466.21118 L 138.09375,463.46118 L 133.40625,462.67993 L 131.84375,460.55493 L 128.34375,460.55493 L 126.96875,458.58618 L 127.15625,456.05493 L 125.40625,457.99243 L 124.8125,460.92993 L 121.6875,459.96118 L 119.9375,457.99243 L 120.125,456.24243 L 122.875,454.86743 L 122.875,451.17993 L 124.21875,449.99243 L 123.65625,447.64868 L 121.3125,447.05493 L 117.59375,445.49243 L 116.8125,447.27368 L 114.0625,447.05493 L 113.875,444.52368 L 110.375,444.33618 L 108.03125,442.17993 L 108.03125,440.02368 L 110.5625,439.64868 L 114.0625,438.27368 L 118.5625,432.80493 L 119.375,431.36743 L 122.28125,426.36743 L 123.4375,421.67993 L 124.8125,415.02368 L 129.3125,397.83618 L 132.79688,379.17993 L 132.8125,374.61743 L 134.96875,371.67993 L 135.375,368.74243 L 137.3125,367.96118 L 138.09375,369.14868 L 142.96875,368.92993 L 141.8125,367.36743 L 141.40625,366.21118 L 137.5,362.67993 L 134.78125,366.21118 L 133.40625,370.71118 L 133.59375,367.36743 L 135.375,354.49243 L 137.90625,337.89868 L 138.875,321.49243 L 142,316.80493 L 143.96875,316.99243 L 143.75,321.08618 L 153.71875,330.08618 L 156.46875,340.80493 L 157.4375,345.49243 L 158.40625,343.92993 L 158.03125,338.27368 L 156.65625,332.61743 L 156.375,331.36743 L 154.90625,324.61743 L 148.65625,318.36743 L 146.5,317.96118 L 146.3125,316.02368 L 143.5625,314.46118 L 139.46875,311.11743 L 137.125,311.33618 L 136.71875,307.02368 L 135.9375,302.74243 L 135.5625,299.02368 L 131.0625,295.71118 L 131.46875,288.86743 L 134.1875,292.17993 L 137.5,292.58618 L 137.90625,297.27368 L 138.875,298.05493 L 139.46875,299.39868 L 137.71875,301.74243 L 138.09375,303.30493 L 140.84375,303.30493 L 140.25,302.33618 L 140.0625,299.61743 L 142.40625,299.80493 L 143.375,295.49243 L 141.625,292.96118 L 142.40625,291.80493 L 144.75,292.17993 L 144.9375,290.02368 L 143.1875,289.24243 L 142.1875,286.52368 L 139.46875,285.92993 L 138.6875,284.17993 L 134.59375,284.36743 L 132.4375,282.61743 L 129.6875,280.86743 L 126.96875,280.86743 L 124.8125,277.74243 L 128.125,276.55493 L 130.46875,278.11743 L 130.875,280.08618 L 134.78125,280.46118 L 136.34375,282.21118 L 139.28125,281.83618 L 139.65625,279.86743 L 142.78125,277.33618 L 141.34375,276.02368 L 140.25,274.99243 L 140.0625,277.74243 L 135.75,275.58618 L 133.8125,272.64868 L 129.5,272.64868 L 127.75,268.74243 L 123.25,268.74243 L 119.34375,264.83618 L 115.4375,262.89868 L 111.71875,251.74243 L 109.96875,251.74243 L 110.15625,249.99243 L 104.125,244.14868 L 104.3125,239.46118 L 110.25,231.80493 L 105.28125,226.96118 L 101,227.74243 L 100.59375,224.80493 L 102.9375,224.80493 L 105.09375,222.64868 L 104.3125,220.89868 L 104.125,218.92993 L 107.625,217.17993 L 104.3125,217.17993 L 101.78125,219.92993 L 98.25,219.92993 L 96.09375,217.17993 L 95.71875,218.74243 L 92,217.96118 L 89.84375,216.80493 L 91.8125,214.05493 L 91.03125,212.49243 L 90.25,211.71118 L 93.96875,208.39868 L 92.78125,207.57056 L 92.40625,205.64868 L 93.75,204.49243 L 91.03125,203.89868 L 80.46875,204.86743 L 78.71875,202.14868 L 76.375,201.36743 L 77.9375,199.39868 L 80.875,200.77368 L 83.40625,201.55493 L 84.375,199.99243 L 82.4375,197.64868 L 79.90625,197.05493 L 80.46875,198.42993 L 77.75,198.83618 L 75.59375,195.89868 L 76.78125,198.61743 L 75.59375,200.58618 L 73.0625,198.42993 L 72.46875,197.05493 L 71.6875,199.39868 L 69.34375,198.83618 L 69.34375,202.33618 L 70.53125,203.89868 L 69.34375,205.27368 L 67,203.52368 L 67.40625,200.96118 L 67.78125,198.42993 L 66.625,196.27368 L 63.09375,192.77368 L 60.375,191.58618 L 60.9375,189.46118 L 59.78125,191.21118 L 56.65625,190.42993 L 54.390625,186.82056 L 51.78125,186.71118 L 48.4375,186.11743 L 47.09375,184.17993 L 46.875,185.33618 L 41.40625,184.96118 L 38.875,180.86743 L 38.09375,177.52368 L 38.09375,180.86743 L 36.15625,181.24243 L 33.03125,179.49243 L 31.25,179.67993 L 29.5,178.89868 L 31.25,181.24243 L 30.28125,182.99243 L 25.78125,183.21118 L 21.6875,182.42993 L 23.0625,179.67993 L 22.09375,174.61743 L 17.96875,169.92993 L 15.4375,170.11743 L 13.6875,168.55493 L 11.53125,168.74243 L 9.59375,167.58618 L 10.9375,165.80493 L 17.59375,165.42993 L 21.5,164.83618 L 23.84375,164.83618 L 26.375,165.02368 L 27.5625,162.89868 L 26.78125,159.77368 L 24.8125,159.36743 L 20.71875,157.02368 L 18.5625,160.33618 L 17.59375,161.11743 L 17.78125,155.86743 L 14.28125,154.67993 L 17,151.55493 L 21.5,153.71118 L 25.21875,154.67993 L 29.90625,154.86743 L 30.09375,153.71118 L 25.78125,153.52368 L 26.5625,150.77368 L 22.65625,152.52368 L 22.28125,150.58618 L 26.5625,146.49243 L 21.6875,149.99243 L 14.28125,150.96118 L 13.6875,150.17993 L 12.5,151.36743 L 9.375,150.96118 L 10.15625,146.67993 L 9.1875,144.92993 L 12.3125,142.36743 L 9.96875,140.61743 L 12.71875,137.30493 L 17.96875,137.11743 L 18.375,134.77368 L 19.9375,133.99243 L 21.3125,134.96118 L 24.4375,134.77368 L 24.4375,133.39868 L 28.90625,132.80493 L 29.3125,134.96118 L 31.84375,134.36743 L 32.625,132.42993 L 36.9375,132.02368 L 39.28125,132.99243 L 41.40625,130.64868 L 41.8125,135.14868 L 44.15625,134.77368 L 44.53125,136.52368 L 46.09375,136.52368 L 46.09375,132.61743 L 51.5625,132.42993 L 54.84375,134.33618 L 57.625,130.64868 L 56.0625,128.52368 L 60.15625,125.77368 L 63.28125,128.11743 L 64.28125,126.74243 L 68.75,126.17993 L 70.53125,124.80493 L 71.6875,127.52368 L 72.28125,125.58618 L 76.1875,125.58618 L 76,127.74243 L 78.125,127.92993 L 77.9375,131.05493 L 80.6875,131.64868 L 80.6875,134.96118 L 84.375,137.67993 L 84,141.21118 L 88.09375,143.14868 L 88.09375,146.67993 L 89.65625,146.67993 L 89.65625,144.71118 L 96.875,140.80493 L 98.0625,138.46118 L 101.5625,139.05493 L 103.90625,137.30493 L 103.90625,141.21118 L 105.28125,139.64868 L 107.25,140.24243 L 107.4375,142.96118 L 109.78125,142.77368 L 110.15625,140.61743 L 113.875,141.02368 L 115.125,139.61743 L 117,137.49243 L 121.6875,137.67993 L 119.34375,140.80493 L 122.875,142.96118 L 132.46875,142.96118 L 136.15625,142.96118 L 138.28125,141.99243 L 137.90625,140.02368 L 133.59375,139.05493 L 130.875,132.02368 L 133.40625,126.96118 L 133.40625,121.49243 L 131.0625,116.80493 L 131.0625,109.77368 L 130.09375,108.39868 L 129.125,103.89868 L 124.625,98.836183 L 123.25,95.711183 L 123.65625,91.992433 L 123.0625,91.586183 L 122.09375,90.617433 L 123.65625,88.679933 L 123.65625,84.367433 L 119.53125,81.054933 L 120.3125,79.086183 L 127.5625,81.242433 L 132.625,84.554933 L 137.125,81.429933 L 145.53125,81.836183 L 147.46875,87.117433 L 145.3125,87.117433 L 143.75,91.023683 L 148.84375,97.054933 L 149.03125,101.74243 L 150.875,101.27368 L 156.65625,99.804933 L 160.375,101.74243 L 176.375,104.08618 L 183.03125,107.80493 L 191.40625,104.49243 L 198.84375,100.17993 L 203.40625,99.367433"
     style="fill:none;fill-opacity:0.07772021;stroke:#b1b1b1;stroke-opacity:1"
     fill="#86aae0" />
  <g
     inkscape:groupmode="layer"
     id="layer2"
     inkscape:label="non-roman"
     style="display:inline">
    <text
       xml:space="preserve"
       style="font-style:normal;font-weight:normal;font-size:13.33333302px;line-height:10px;font-family:'Bitstream Vera Sans';letter-spacing:0px;word-spacing:0px;fill:#000000;fill-opacity:1;stroke:none;stroke-width:1px;stroke-linecap:butt;stroke-linejoin:miter;stroke-opacity:1"
       x="447.83899"
       y="143.22034"
       id="text4994"><tspan
         sodipodi:role="line"
         id="tspan4992"
         x="447.83899"
         y="143.22034"
         style="font-style:oblique;font-variant:normal;font-weight:normal;font-stretch:normal;font-family:'Bitstream Vera Sans';-inkscape-font-specification:'Bitstream Vera Sans Oblique'">alsacien</tspan></text>
    <text
       xml:space="preserve"
       style="font-style:normal;font-weight:normal;font-size:13.33333302px;line-height:10px;font-family:'Bitstream Vera Sans';letter-spacing:0px;word-spacing:0px;display:inline;fill:#000000;fill-opacity:1;stroke:none;stroke-width:0.40000001;stroke-linecap:butt;stroke-linejoin:miter;stroke-miterlimit:4;stroke-dasharray:none;stroke-opacity:1"
       x="35.442772"
       y="171.68686"
       id="text4510"><tspan
         sodipodi:role="line"
         id="tspan4508"
         x="35.442772"
         y="171.68686"
         style="font-style:oblique;font-variant:normal;font-weight:normal;font-stretch:normal;font-family:'Bitstream Vera Sans';-inkscape-font-specification:'Bitstream Vera Sans Oblique';fill:#000000;stroke:none;stroke-width:0.40000001;stroke-miterlimit:4;stroke-dasharray:none;stroke-opacity:1">breton</tspan></text>
    <text
       xml:space="preserve"
       style="font-style:normal;font-weight:normal;font-size:13.33333302px;line-height:10px;font-family:'Bitstream Vera Sans';letter-spacing:0px;word-spacing:0px;display:inline;fill:#000000;fill-opacity:1;stroke:none;stroke-width:0.40000001;stroke-linecap:butt;stroke-linejoin:miter;stroke-miterlimit:4;stroke-dasharray:none;stroke-opacity:1"
       x="112.01056"
       y="460.33093"
       id="text4530"><tspan
         sodipodi:role="line"
         id="tspan4528"
         x="112.01056"
         y="460.33093"
         style="font-style:oblique;font-variant:normal;font-weight:normal;font-stretch:normal;font-family:'Bitstream Vera Sans';-inkscape-font-specification:'Bitstream Vera Sans Oblique';fill:#000000;stroke:none;stroke-width:0.40000001;stroke-miterlimit:4;stroke-dasharray:none;stroke-opacity:1">basque</tspan></text>
  </g>
  <g
     inkscape:groupmode="layer"
     id="layer3"
     inkscape:label="oil-oc"
     style="display:inline">
    <path
       style="fill:none;fill-opacity:0.75;fill-rule:evenodd;stroke:#000000;stroke-width:1px;stroke-linecap:butt;stroke-linejoin:miter;stroke-opacity:1"
       d="m 137.125,311.33618 c 49.92622,-0.88615 99.75672,-7.07173 148.38434,-18.41933 53.15731,-12.40463 104.8717,-30.98113 153.77191,-55.23692"
       id="path5093"
       inkscape:connector-curvature="0"
       inkscape:path-effect="#path-effect5095"
       inkscape:original-d="m 137.125,311.33618 c 49.46245,-6.14078 98.9239,-12.28055 148.38434,-18.41933 49.46045,-6.13877 102.51561,-36.82561 153.77191,-55.23692" />
    <path
       style="fill:none;fill-opacity:0.75;fill-rule:evenodd;stroke:#000000;stroke-width:1px;stroke-linecap:butt;stroke-linejoin:miter;stroke-opacity:1"
       d="m 464.46875,316.58618 c -51.10722,-4.00469 -102.3778,-5.92414 -153.64139,-5.75196 -54.13175,0.18181 -108.25562,2.69598 -162.17111,7.53321"
       id="path5097"
       inkscape:connector-curvature="0"
       inkscape:path-effect="#path-effect5099"
       inkscape:original-d="m 464.46875,316.58618 c -51.2128,-1.91832 -102.42659,-3.83564 -153.64139,-5.75196 -51.21479,-1.91632 -108.11307,5.02114 -162.17111,7.53321" />
    <text
       xml:space="preserve"
       style="font-style:normal;font-weight:normal;font-size:13.33333302px;line-height:10px;font-family:'Bitstream Vera Sans';letter-spacing:0px;word-spacing:0px;fill:#000000;fill-opacity:1;stroke:none;stroke-width:1px;stroke-linecap:butt;stroke-linejoin:miter;stroke-opacity:1"
       x="237.21036"
       y="375.49255"
       id="text5103"><tspan
         sodipodi:role="line"
         id="tspan5101"
         x="237.21036"
         y="383.95609"
         style="font-style:normal;font-variant:normal;font-weight:normal;font-stretch:normal;font-size:13.33333302px;font-family:'Bitstream Vera Serif';-inkscape-font-specification:'Bitstream Vera Serif'" /></text>
    <text
       xml:space="preserve"
       style="font-style:normal;font-weight:normal;font-size:13.33333302px;line-height:10px;font-family:'Bitstream Vera Sans';letter-spacing:0px;word-spacing:0px;fill:#000000;fill-opacity:1;stroke:none;stroke-width:1px;stroke-linecap:butt;stroke-linejoin:miter;stroke-opacity:1"
       x="249.67461"
       y="382.50369"
       id="text5107"><tspan
         sodipodi:role="line"
         id="tspan5105"
         x="249.67461"
         y="382.50369"
         style="font-style:normal;font-variant:normal;font-weight:normal;font-stretch:normal;font-size:16px;font-family:'Bitstream Vera Serif';-inkscape-font-specification:'Bitstream Vera Serif';fill:#ff0000">langue d'oc</tspan></text>
    <text
       xml:space="preserve"
       style="font-style:normal;font-weight:normal;font-size:13.33333302px;line-height:10px;font-family:'Bitstream Vera Sans';letter-spacing:0px;word-spacing:0px;fill:#000000;fill-opacity:1;stroke:none;stroke-width:1px;stroke-linecap:butt;stroke-linejoin:miter;stroke-opacity:1"
       x="213.06087"
       y="162.8212"
       id="text5111"><tspan
         sodipodi:role="line"
         id="tspan5109"
         x="213.06087"
         y="162.8212"
         style="font-style:normal;font-variant:normal;font-weight:normal;font-stretch:normal;font-size:16px;font-family:'Bitstream Vera Serif';-inkscape-font-specification:'Bitstream Vera Serif';fill:#0000ff">langue d'oïl</tspan></text>
    <text
       xml:space="preserve"
       style="font-style:normal;font-weight:normal;font-size:13.33333302px;line-height:10px;font-family:'Bitstream Vera Sans';letter-spacing:0px;word-spacing:0px;fill:#000000;fill-opacity:1;stroke:none;stroke-width:1px;stroke-linecap:butt;stroke-linejoin:miter;stroke-opacity:1"
       x="311.21686"
       y="304.99161"
       id="text5115"><tspan
         sodipodi:role="line"
         id="tspan5113"
         x="311.21686"
         y="313.45514" /></text>
    <path
       style="fill:#37f628;fill-opacity:0.0777202;stroke:#b1b1b1;stroke-width:0;stroke-miterlimit:4;stroke-dasharray:none;stroke-dashoffset:0;stroke-opacity:1"
       d="m 147.59663,317.61976 c -0.64047,-0.13348 -0.65413,-0.14716 -0.65413,-0.65506 0,-1.19658 -0.0516,-1.26546 -1.58485,-2.1148 -0.78282,-0.43365 -2.01914,-1.27806 -2.74736,-1.87647 l -1.32404,-1.08801 0.59031,-0.072 c 0.32466,-0.0396 2.20153,-0.10754 4.17081,-0.15098 4.00609,-0.0884 10.99083,-0.3767 16.80085,-0.69353 66.28114,-3.61444 131.34503,-16.39142 193.89831,-38.07697 26.52559,-9.19571 53.19984,-20.25872 77.73834,-32.24159 l 4.20022,-2.05109 0.0879,0.86323 c 0.0484,0.47477 0.12764,2.35051 0.17616,4.16831 l 0.0882,3.30509 -5.98232,5.57733 -5.98233,5.57733 -0.14987,0.83755 c -0.21848,1.2211 -0.21982,1.21741 0.53924,1.49037 0.37901,0.13629 0.72373,0.30383 0.76606,0.37232 0.0423,0.0685 -0.40278,0.69737 -0.98912,1.39752 -0.58633,0.70015 -1.14178,1.36595 -1.23431,1.47957 -0.0925,0.11361 -0.23861,1.01218 -0.32461,1.99682 -0.086,0.98464 -0.18943,2.01576 -0.22982,2.29137 l -0.0734,0.50112 1.9358,1.01312 c 1.46958,0.76911 1.96475,1.09618 2.05597,1.35799 0.10686,0.30673 -0.0545,0.56382 -1.45891,2.32455 -1.20777,1.51419 -1.53514,2.00868 -1.3923,2.10305 0.1027,0.0679 0.41912,0.25741 0.70315,0.42122 0.52642,0.3036 0.62364,0.59125 0.436,1.29001 -0.0683,0.25446 -0.24653,0.30318 -1.64026,0.44846 -1.5425,0.16079 -1.58184,0.17375 -2.91668,0.96041 l -1.3531,0.79742 -0.0378,2.30019 -0.0378,2.3002 h 3.62783 3.62783 l 1.2987,-1.21816 c 0.8374,-0.78546 2.09841,-1.74073 3.5501,-2.68933 1.68966,-1.1041 2.21617,-1.51363 2.11018,-1.64135 -0.0777,-0.0936 -0.63565,-0.56671 -1.23993,-1.05134 -1.06223,-0.85192 -1.10157,-0.90442 -1.18554,-1.5817 -0.081,-0.65356 -0.0278,-0.82981 0.79457,-2.6285 l 0.88143,-1.92797 0.7871,-0.0714 0.78711,-0.0714 0.57422,0.93092 c 0.31581,0.512 0.63618,0.92893 0.71193,0.92652 0.0757,-0.002 1.15043,-0.82949 2.38818,-1.83794 l 2.25047,-1.83354 2.08746,-0.36683 c 1.85375,-0.32576 2.43599,-0.36654 5.20071,-0.36427 l 3.11327,0.003 0.0754,1.09979 0.0754,1.0998 1.73455,1.82368 1.73455,1.82369 v 1.18892 1.18892 l -1.03284,1.12165 c -1.11648,1.21249 -1.1485,1.30758 -0.91935,2.73036 l 0.0931,0.57788 1.82469,0.89904 1.82468,0.89905 v 2.62675 2.62674 l 0.87393,-0.48873 c 0.48067,-0.2688 0.90784,-0.48873 0.94928,-0.48873 0.0414,0 0.92359,0.89576 1.96031,1.99059 l 1.88496,1.99058 0.197,1.9758 0.19699,1.97579 -0.33225,0.81667 -0.33226,0.81666 -3.35311,1.38174 -3.35311,1.38175 -0.0846,1.65036 c -0.0465,0.9077 -0.0906,2.54893 -0.0978,3.64718 l -0.0132,1.99682 1.60517,1.83037 1.60516,1.83037 0.97149,-0.0885 c 0.53432,-0.0487 1.34331,-0.13653 1.79776,-0.19526 0.56911,-0.0735 0.85776,-0.0585 0.92745,0.0484 0.0556,0.0853 0.10212,1.44548 0.10328,3.02257 l 0.002,2.86743 -0.72298,-0.0813 c -2.37969,-0.26769 -22.82949,-1.67455 -34.04926,-2.34244 -38.13999,-2.27039 -72.66422,-3.28094 -112.09746,-3.28117 -36.77531,-2.8e-4 -66.87681,0.81356 -103.42161,2.79596 -19.09244,1.03568 -44.23012,2.83238 -61.66231,4.40727 -3.30132,0.29825 -3.45236,0.30179 -4.40496,0.10326 z"
       id="path1024"
       inkscape:connector-curvature="0" />
    <path
       style="fill:#ff8056;fill-opacity:0.07772019;stroke:#b1b1b1;stroke-width:0;stroke-miterlimit:4;stroke-dasharray:none;stroke-dashoffset:0;stroke-opacity:1"
       d="m 283.99681,502.15829 c -2.3777,-2.06161 -2.61719,-2.19536 -5.87128,-3.27904 l -3.39248,-1.12976 -2.18584,0.43842 -2.18584,0.43841 -1.55533,1.90109 c -2.37654,2.90484 -3.08908,3.07188 -5.12173,1.20068 -1.30213,-1.1987 -1.30826,-1.21271 -1.30826,-2.98836 v -1.78402 l -3.05169,-0.78778 c -2.72602,-0.7037 -3.19896,-0.92004 -4.43178,-2.02718 l -1.3801,-1.23941 -0.50959,-2.85274 c -0.28027,-1.56901 -0.5822,-2.92535 -0.67094,-3.0141 -0.0888,-0.0887 -2.15388,-0.44037 -4.58918,-0.78139 -4.38623,-0.61422 -4.44026,-0.61514 -5.75302,-0.0977 l -1.3252,0.52234 -1.68066,-2.62667 -1.68067,-2.62667 -1.0282,0.14956 c -0.56552,0.0823 -2.44954,0.18575 -4.18673,0.22999 l -3.15853,0.0804 -1.63454,-2.13453 -1.63453,-2.13453 -1.54169,-8.3e-4 c -0.84792,-5.5e-4 -2.82019,-0.24906 -4.38281,-0.55245 -2.42567,-0.47096 -3.21194,-0.76985 -5.37705,-2.04409 -2.02055,-1.18915 -2.87567,-1.53091 -4.20761,-1.6816 l -1.67169,-0.18913 -0.18113,2.55179 c -0.0996,1.40347 -0.18114,3.52426 -0.18114,4.71285 v 2.16108 h -1.23378 c -3.00069,0 -9.73812,-0.61785 -10.68387,-0.97975 -1.40883,-0.53911 -1.39426,-0.54401 -2.09586,0.70433 -0.34055,0.60593 -0.70422,1.10035 -0.80813,1.09872 -0.10392,-0.002 -0.80865,-0.18892 -1.56607,-0.41617 -1.06665,-0.32003 -1.71864,-0.78128 -2.89195,-2.04592 l -1.51483,-1.63274 -3.12445,1.36034 c -4.12407,1.79557 -5.31698,1.8385 -7.20321,0.25927 -1.07641,-0.90123 -1.34759,-1.31366 -1.49403,-2.27225 -0.16673,-1.09146 -0.34525,-1.29168 -2.62303,-2.94189 -1.34426,-0.9739 -3.10599,-2.13341 -3.91495,-2.5767 l -1.47084,-0.80596 -2.75292,1.52541 c -2.51864,1.39559 -2.79313,1.48904 -3.22522,1.098 -0.56588,-0.51212 -1.99073,-0.31791 -3.56686,0.48617 l -1.03248,0.52674 -0.73384,-0.96211 c -0.4036,-0.52915 -1.88467,-1.83855 -3.29125,-2.90976 l -2.55743,-1.94765 -0.19337,-2.18446 -0.19337,-2.18446 h -3.88794 -3.88795 l -2.21156,-1.35411 c -1.63546,-1.00137 -2.67793,-1.43349 -4.00182,-1.65883 -0.98464,-0.16759 -2.0507,-0.36159 -2.36902,-0.43111 -0.31832,-0.0695 -0.92389,-0.62443 -1.34572,-1.23313 -0.75885,-1.09502 -0.78542,-1.10672 -2.51341,-1.10672 -1.58845,0 -1.79002,-0.0665 -2.22812,-0.73514 -0.36861,-0.56256 -0.46299,-1.19295 -0.40206,-2.68538 l 0.0796,-1.95024 -1.50607,1.65254 c -1.1568,1.26931 -1.54802,1.92422 -1.68699,2.82407 -0.17057,1.10449 -0.22329,1.16128 -0.92132,0.9925 -1.449,-0.35034 -1.92245,-0.62135 -2.49827,-1.43001 -0.92252,-1.29556 -0.76584,-1.79373 0.7939,-2.52427 l 1.37712,-0.64501 v -1.83288 c 0,-1.61348 0.0849,-1.91267 0.70966,-2.49956 0.62585,-0.58796 0.68828,-0.80921 0.52869,-1.87348 -0.26888,-1.79304 -0.36728,-1.93052 -1.61095,-2.25092 -0.62823,-0.16185 -2.17197,-0.71877 -3.43054,-1.2376 l -2.28831,-0.94332 -0.40077,0.95918 c -0.34725,0.8311 -0.52698,0.95918 -1.34596,0.95918 -0.93221,0 -0.94635,-0.018 -1.02915,-1.30826 l -0.0839,-1.30827 -1.76877,-0.0832 c -1.48371,-0.0698 -1.93868,-0.21781 -2.82309,-0.91827 -0.78736,-0.6236 -1.05433,-1.03709 -1.05433,-1.63293 0,-0.64974 0.14063,-0.82626 0.75741,-0.95075 1.1162,-0.22527 3.40054,-0.98603 4.27468,-1.42359 1.23162,-0.61651 5.12353,-5.60739 7.21601,-9.25361 2.02993,-3.53723 2.36817,-4.5669 3.72915,-11.35203 0.30384,-1.51483 1.5999,-6.78231 2.88011,-11.70551 2.56176,-9.85151 5.51324,-24.72537 5.8206,-29.33263 0.16997,-2.54788 0.25393,-2.85332 1.12066,-4.07666 0.5153,-0.72734 1.00268,-1.71887 1.08306,-2.20339 0.30675,-1.84924 0.39434,-2.0585 0.91907,-2.19572 0.34719,-0.0908 0.67148,0.0571 0.90879,0.41453 0.35039,0.52772 0.52456,0.54357 3.45949,0.31482 l 3.09053,-0.24087 -0.96665,-1.35674 c -0.53165,-0.74621 -0.96664,-1.50073 -0.96664,-1.67672 0,-0.17598 -1.04828,-1.27423 -2.32951,-2.44055 l -2.32952,-2.12058 -1.44366,1.92914 c -0.79401,1.06102 -1.46681,1.90222 -1.49511,1.86933 -0.0653,-0.0759 2.05638,-14.83956 3.16816,-22.04609 0.58458,-3.78931 0.98694,-7.95418 1.31448,-13.60637 l 0.47203,-8.14551 1.39042,-2.16052 c 0.9718,-1.51004 1.55627,-2.16106 1.94127,-2.16229 0.50739,-0.002 0.5448,0.15585 0.47425,1.99571 l -0.0766,1.99746 4.00378,3.58051 c 2.20208,1.96928 4.45102,3.97802 4.99765,4.46387 0.93801,0.83372 1.06936,1.17427 2.33699,6.05933 0.73872,2.84677 1.60916,6.50832 1.93431,8.13676 0.32516,1.62844 0.69252,2.9608 0.81638,2.9608 0.12385,0 0.55856,-0.56886 0.96603,-1.26414 0.71587,-1.22155 0.73517,-1.36304 0.57261,-4.20021 -0.10619,-1.85351 -0.51676,-4.40857 -1.11352,-6.92971 -0.51992,-2.19651 -1.21844,-5.29502 -1.55228,-6.8856 l -0.60696,-2.89195 -2.79089,-2.82309 c -1.53499,-1.5527 -2.6072,-2.82377 -2.38268,-2.82459 0.22452,-8.2e-4 3.94053,-0.30625 8.25779,-0.67872 78.9866,-6.81461 164.97126,-8.45263 245.54026,-4.67757 17.96906,0.84194 41.32741,2.25718 54.7389,3.31653 l 5.43805,0.42955 2.46284,1.42556 c 2.33686,1.35264 2.47886,1.48876 2.77618,2.6613 0.38755,1.52839 0.64538,1.84875 1.66874,2.07352 0.44398,0.0975 0.80724,0.28115 0.80724,0.40808 0,0.12693 -0.54605,1.15438 -1.21343,2.28323 l -1.21344,2.05244 0.52686,0.79341 c 0.40928,0.61635 0.48879,1.06998 0.35632,2.03281 -0.0938,0.68168 -0.31159,1.37259 -0.48398,1.53537 -0.17239,0.16277 -1.24299,0.64417 -2.37911,1.06977 -1.13612,0.4256 -2.4375,1.11161 -2.89195,1.52446 -0.45445,0.41286 -1.35302,1.03876 -1.99682,1.3909 -0.83676,0.45768 -1.17055,0.81572 -1.17055,1.25557 0,1.66547 -0.95528,1.93372 -2.78126,0.78103 l -1.11775,-0.70561 -3.28355,1.30471 c -1.80595,0.71759 -3.2752,1.43792 -3.26501,1.60073 0.0102,0.16282 0.59891,1.46914 1.30827,2.90293 1.27053,2.56811 1.31021,2.61352 2.66684,3.05217 l 1.37712,0.44528 0.37204,2.88931 0.37207,2.88932 2.84136,1.41311 c 2.68601,1.33584 2.91657,1.40122 4.21671,1.19569 0.89507,-0.14149 1.64843,-0.10635 2.15736,0.10063 0.75494,0.30703 0.79152,0.41269 1.05741,3.0535 l 0.27542,2.73545 1.30747,0.68856 c 1.48627,0.78272 1.70308,1.37712 0.50231,1.37712 -0.61245,0 -1.14265,0.34821 -2.20162,1.44598 -1.46096,1.51445 -1.44567,1.45568 -0.94908,3.64936 0.0882,0.38967 -0.38684,1.11496 -1.62355,2.47881 -2.3682,2.61163 -2.63307,3.31428 -1.97696,5.24447 0.48147,1.41652 0.58263,1.52155 1.89872,1.97161 l 1.39017,0.47539 -1.03284,0.26534 -1.03284,0.26535 0.006,2.36138 0.006,2.36138 2.05978,1.23783 2.05979,1.23783 v 1.86069 1.86068 l 1.58368,2e-4 c 0.87103,1.1e-4 2.74603,0.3188 4.1667,0.70821 2.37112,0.64993 2.79164,0.87583 5.12679,2.75404 2.54081,2.0436 2.54582,2.04603 4.2266,2.04603 1.35921,0 2.57108,-0.31751 6.30326,-1.65144 2.85984,-1.02215 5.06251,-1.65186 5.78046,-1.65254 1.10679,-10e-4 1.17286,0.0462 1.44258,1.03173 0.15548,0.56806 0.53474,1.44304 0.84283,1.94439 0.82644,1.34484 0.97527,3.69669 0.35912,5.67443 l -0.50727,1.62835 -1.92403,0.645 c -1.0582,0.35475 -2.06342,0.69662 -2.2338,0.75972 -0.22694,0.084 -0.21786,0.50719 0.034,1.58258 l 0.34378,1.46786 -1.50199,1.37712 -1.502,1.37712 0.84828,1.98173 c 0.46657,1.08995 0.84828,2.09484 0.84828,2.23309 0,0.13826 -0.74365,0.71038 -1.65255,1.27138 -1.50163,0.92687 -1.65254,1.10649 -1.65254,1.96712 v 0.9471 h -1.677 c -1.67543,0 -1.67876,0.002 -3.59659,1.75201 l -1.91962,1.752 -2.20863,0.15138 c -1.21472,0.0833 -2.29196,0.23448 -2.39384,0.33605 -0.10188,0.10156 -0.22827,1.42709 -0.28082,2.94561 l -0.0956,2.76095 -0.78697,-0.15739 c -0.65072,-0.13014 -0.90416,-0.008 -1.4641,0.70788 l -0.67718,0.86526 -1.96967,-0.352 c -1.08332,-0.1936 -2.05419,-0.2675 -2.15748,-0.16421 -0.10331,0.10329 -0.23289,1.20045 -0.28803,2.43814 l -0.1002,2.25034 -1.48261,1.69268 -1.48258,1.69268 -2.41188,0.31749 c -3.84966,0.50675 -3.54743,0.32337 -3.75158,2.27638 -0.23196,2.21927 -1.00571,3.19606 -4.04517,5.10658 l -2.30043,1.44597 h 2.80982 2.80979 v 1.94345 1.94346 l -1.28441,0.56816 c -1.2115,0.5359 -1.36888,0.54464 -2.77252,0.15396 l -1.48809,-0.41419 -0.60144,0.92883 c -0.59313,0.91603 -0.6299,0.92904 -2.6671,0.94344 -1.84969,0.0131 -2.15918,0.0947 -2.95987,0.78009 -0.65655,0.56206 -0.95935,1.11442 -1.13948,2.0785 -0.30159,1.61442 -0.71392,2.11529 -1.20153,1.45952 -0.18991,-0.25543 -1.40301,-0.82058 -2.69577,-1.25589 l -2.35044,-0.79146 -1.50549,1.08606 c -0.82801,0.59734 -1.47468,1.23759 -1.43705,1.4228 0.0539,0.26516 -0.63948,0.26458 -3.26273,-0.003 l -3.33116,-0.33948 -1.83262,1.11268 c -1.00791,0.61197 -2.22562,1.4078 -2.70601,1.76851 -0.64824,0.48676 -1.08382,0.61376 -1.68953,0.49261 -0.74343,-0.14868 -0.86194,-0.33444 -1.32999,-2.08425 l -0.51384,-1.92103 -1.7534,-0.7719 c -0.96437,-0.42454 -2.01786,-1.09696 -2.3411,-1.49426 -0.39989,-0.49151 -1.37439,-0.98625 -3.04933,-1.54809 -2.29075,-0.76846 -2.7425,-0.82571 -6.51608,-0.82571 h -4.05471 l 0.49186,-1.03284 c 1.09334,-2.29599 1.10389,-2.27215 -1.00527,-2.27299 l -1.87768,-8.2e-4 1.20113,-1.03579 1.20115,-1.03578 -0.35819,-1.19553 c -0.19701,-0.65754 -0.49888,-1.24952 -0.67082,-1.3155 -0.17195,-0.066 -0.9024,0.13283 -1.62321,0.44181 -1.17246,0.50257 -1.88707,0.56177 -6.78116,0.56177 h -5.4706 l -0.91017,-1.85732 c -0.89807,-1.83263 -0.93743,-1.86892 -2.96099,-2.73009 l -2.05081,-0.87276 -1.61268,1.26698 -1.61267,1.26699 1.52975,1.52975 1.52974,1.52975 -2.54845,0.46074 c -2.52457,0.45643 -2.58073,0.45434 -5.99126,-0.22336 -4.58895,-0.91186 -4.26069,-0.72393 -3.52246,-2.01661 l 0.63052,-1.10407 2.0624,-0.002 2.06239,-0.002 -1.38598,-1.38599 -1.38598,-1.38598 -5.49633,-0.41876 c -3.02299,-0.23032 -7.75821,-0.44322 -10.52273,-0.47313 l -5.02639,-0.0541 -9e-5,-1.83719 -9e-5,-1.83718 -1.85911,-0.16431 c -1.02251,-0.0904 -2.43541,-0.21686 -3.13978,-0.2811 -1.23951,-0.11304 -1.39402,-0.0365 -4.80712,2.38178 -4.95983,3.51417 -13.93053,10.70604 -14.83786,11.89561 l -0.76049,0.99705 h -2.72601 -2.726 l -0.46004,0.96471 c -0.43392,0.90994 -0.64086,1.01979 -3.64491,1.93476 -1.75168,0.53352 -3.37078,1.07315 -3.598,1.19918 -0.23946,0.1328 -0.48721,0.82369 -0.58934,1.6434 -0.24972,2.00445 -0.26472,2.02772 -2.49289,3.86844 l -2.01311,1.66306 -1.69965,-1.68247 -1.69965,-1.68248 -1.03164,1.6127 c -0.5674,0.88699 -1.03163,1.74308 -1.03163,1.90242 0,0.15934 0.47199,1.00058 1.04888,1.86944 0.98455,1.48283 1.11618,1.57972 2.14619,1.57972 h 1.0973 l -0.10346,3.37394 c -0.11833,3.85899 0.26404,23.65492 0.47844,24.76915 0.11158,0.5799 0.45013,0.8661 1.577,1.33316 1.74061,0.72145 2.66101,1.9565 2.66101,3.57074 0,1.09587 -0.009,1.10556 -1.04319,1.10556 -0.88736,0 -1.24581,-0.20572 -2.3996,-1.37712 l -1.35641,-1.37712 -2.48917,0.0213 c -3.35474,0.0288 -4.86491,0.57344 -6.07469,2.19092 -0.89843,1.2012 -0.99141,1.24764 -3.90048,1.94814 l -2.9801,0.71761 -0.27542,1.39473 c -0.34116,1.72762 -0.49173,1.88365 -1.28288,1.32951 -0.34647,-0.24268 -1.06714,-0.44088 -1.6015,-0.44044 -0.77237,5.5e-4 -1.08449,0.16987 -1.5224,0.82548 -0.30297,0.45358 -0.61282,0.81967 -0.68856,0.81354 -0.0757,-0.006 -1.25318,-0.97831 -2.61653,-2.16041 z m -3.10318,-116.44078 c 1.3566,-0.68205 1.58835,-1.57502 1.58835,-6.1202 0,-4.0633 0.009,-4.12721 0.61689,-4.21389 0.33929,-0.0484 0.65823,-0.30491 0.70876,-0.57 0.0786,-0.41237 -0.12986,-0.48199 -1.44317,-0.48199 -0.86535,0 -1.53502,0.12324 -1.53502,0.28249 0,0.16193 -0.34681,0.10316 -0.81259,-0.13771 -2.70283,-1.39768 -5.24673,0.52631 -5.24673,3.96819 0,2.80187 1.30459,4.42516 3.55636,4.42516 0.71156,0 1.5502,-0.19016 1.89083,-0.42875 0.58349,-0.40869 0.61213,-0.39665 0.61213,0.25749 0,1.85425 -1.17818,2.85204 -2.97061,2.51578 -0.59966,-0.1125 -1.01551,-0.40093 -1.21763,-0.84455 -0.48531,-1.06512 -1.04481,-0.8426 -1.04481,0.41552 0,1.04507 0.0419,1.09604 1.03284,1.25775 0.56806,0.0927 1.21875,0.20294 1.44597,0.245 0.64277,0.11897 1.98952,-0.15353 2.81843,-0.57029 z m -27.05572,-3.39879 c 0,-0.40396 -0.18361,-0.55085 -0.68856,-0.55085 h -0.68856 v -5.64619 -5.64618 h -1.53502 c -1.31331,0 -1.52176,0.0696 -1.44316,0.48199 0.0505,0.26509 0.36946,0.52159 0.70875,0.57 0.61341,0.0875 0.61689,0.11668 0.61689,5.1642 v 5.07618 h -0.68856 c -0.50494,0 -0.68856,0.14689 -0.68856,0.55085 0,0.50494 0.18362,0.55084 2.20339,0.55084 2.01978,0 2.20339,-0.0459 2.20339,-0.55084 z m 5.99804,0.12209 c 0.55658,-0.38984 0.61213,-0.38854 0.61213,0.0144 0,0.67368 2.84865,0.47728 2.97842,-0.20535 0.068,-0.35791 -0.0908,-0.48199 -0.61712,-0.48199 l -0.70875,-1e-5 -0.001,-2.68538 c -10e-4,-3.9141 -0.819,-5.02649 -3.69402,-5.02649 -0.6492,0 -1.57069,0.13607 -2.04775,0.30237 -0.74366,0.25925 -0.86737,0.43601 -0.86737,1.23941 0,0.75342 0.10795,0.93704 0.55085,0.93704 0.30297,0 0.55085,-0.17074 0.55085,-0.37942 0,-1.14641 2.5242,-1.4796 3.36287,-0.44388 0.27119,0.33489 0.49306,0.84305 0.49306,1.12923 0,0.44746 -0.2134,0.52034 -1.52368,0.52034 -1.76708,0 -3.26222,0.54162 -3.6872,1.33569 -0.57471,1.07386 -0.35973,2.50048 0.50749,3.3677 0.6687,0.6687 1.03158,0.80508 2.14211,0.80508 0.76434,0 1.59921,-0.18364 1.94915,-0.42875 z m 8.59942,-0.12209 c 0,-0.36723 -0.18362,-0.55085 -0.55085,-0.55085 -0.51173,0 -0.55084,-0.18362 -0.55084,-2.58602 0,-2.924 0.40662,-3.81758 1.73719,-3.81758 1.3811,0 1.56789,0.42236 1.56789,3.54537 0,2.67461 -0.0354,2.85823 -0.55085,2.85823 -0.36723,0 -0.55084,0.18362 -0.55084,0.55085 0,0.50188 0.18361,0.55084 2.06567,0.55084 1.88207,0 2.06568,-0.049 2.06568,-0.55084 0,-0.40396 -0.18361,-0.55085 -0.68856,-0.55085 h -0.68856 v -2.90563 c 0,-3.01536 -0.34328,-4.28654 -1.25174,-4.63515 -0.81797,-0.31388 -2.34031,-0.17622 -3.02701,0.27373 -0.41693,0.27318 -0.67887,0.32631 -0.67887,0.13771 0,-0.18863 -0.5844,-0.3071 -1.51483,-0.3071 -1.33122,0 -1.51484,0.0668 -1.51484,0.55085 0,0.40395 0.18362,0.55084 0.68856,0.55084 h 0.68856 v 3.16738 3.16737 h -0.68856 c -0.50494,0 -0.68856,0.14689 -0.68856,0.55085 0,0.50188 0.18362,0.55084 2.06568,0.55084 1.88206,0 2.06568,-0.049 2.06568,-0.55084 z m 22.0339,0 0.55085,-0.55085 v 0.55085 c 0,0.48408 0.18361,0.55084 1.51483,0.55084 1.33121,0 1.51483,-0.0668 1.51483,-0.55084 0,-0.40396 -0.18362,-0.55085 -0.68856,-0.55085 h -0.68856 v -3.71822 -3.71822 h -1.37712 c -1.1935,0 -1.37712,0.0735 -1.37712,0.55085 0,0.36723 0.18362,0.55084 0.55085,0.55084 0.51025,0 0.55085,0.18362 0.55085,2.49133 0,2.27789 -0.0579,2.54926 -0.67604,3.16738 -0.68884,0.68884 -1.38784,0.84356 -2.01438,0.44589 -0.58335,-0.37027 -0.89009,-1.97508 -0.89009,-4.6568 v -2.54949 h -1.37712 c -1.1935,0 -1.37712,0.0735 -1.37712,0.55085 0,0.36723 0.18362,0.55084 0.55085,0.55084 0.50621,0 0.55097,0.18413 0.55238,2.27225 0.003,3.98856 0.67466,5.16419 2.9517,5.16419 0.81089,0 1.34983,-0.1717 1.72897,-0.55084 z m 11.01391,0.13928 c 0.84742,-0.43822 1.65558,-1.41002 1.65558,-1.99082 0,-0.66157 -1.27108,-0.39053 -1.60495,0.34224 -0.61485,1.34946 -2.96876,1.54717 -3.74811,0.31481 -0.20722,-0.32767 -0.46075,-0.99858 -0.5634,-1.4909 l -0.18663,-0.89512 h 3.18926 c 2.05755,0 3.18925,-0.10332 3.18925,-0.29117 0,-1.02559 -0.72022,-2.79771 -1.40282,-3.45169 -0.64494,-0.61788 -1.10703,-0.78614 -2.38397,-0.86808 -2.75039,-0.17649 -4.27701,1.36289 -4.29958,4.33551 -0.021,2.76197 1.48361,4.40376 4.03755,4.40575 0.72707,5.5e-4 1.68009,-0.18417 2.11782,-0.41053 z m 13.87479,-0.15927 0.72571,-0.57084 v 0.58523 c 0,0.53283 0.12923,0.57778 1.44339,0.50198 1.11556,-0.0643 1.46421,-0.19272 1.53503,-0.56524 0.068,-0.35791 -0.0908,-0.48199 -0.61713,-0.48199 h -0.70875 v -5.64619 -5.64618 h -1.51483 c -1.33122,0 -1.51483,0.0668 -1.51483,0.55084 0,0.40396 0.18361,0.55085 0.68856,0.55085 0.66462,0 0.68856,0.0629 0.68856,1.81024 v 1.81025 l -0.72571,-0.57084 c -0.48041,-0.37789 -1.12882,-0.57084 -1.91838,-0.57084 -3.48167,0 -4.98954,5.26892 -2.28255,7.97591 0.7,0.7 1.05437,0.83765 2.15644,0.83765 0.91714,0 1.53981,-0.17385 2.04449,-0.57083 z m 15.48292,0.0515 c 1.26134,-0.76916 1.8501,-2.23208 1.72008,-4.27398 -0.16955,-2.66262 -1.56403,-4.02139 -4.12485,-4.01919 -2.40704,0.002 -3.89265,1.67459 -3.91339,4.40575 -0.0212,2.78822 1.48083,4.40472 4.09273,4.40472 0.86262,0 1.69404,-0.19326 2.22543,-0.5173 z m 9.72961,-0.23805 c 0.44499,-0.41658 0.88909,-1.03628 0.98689,-1.37712 0.28554,-0.99515 -0.97415,-0.83515 -1.56222,0.19842 -0.25971,0.45647 -0.79626,0.89816 -1.22032,1.00459 -1.77605,0.44576 -3.06683,-1.51416 -2.72828,-4.1426 0.22471,-1.74456 0.50749,-2.24559 1.44549,-2.56111 1.16215,-0.39093 2.08519,-0.0454 2.55348,0.956 0.23108,0.49412 0.62554,0.88604 0.89513,0.88937 0.38594,0.005 0.48199,-0.23232 0.48199,-1.18984 0,-1.14958 -0.0412,-1.20815 -1.06479,-1.51484 -3.67023,-1.09962 -6.20572,0.57053 -6.20572,4.08776 0,2.82482 1.49368,4.40384 4.16765,4.40575 1.19374,8.3e-4 1.58075,-0.12921 2.2507,-0.75638 z m -18.2098,-8.95127 c -0.0781,-2.21878 -0.0962,-2.27225 -0.76855,-2.27225 -0.67236,0 -0.69044,0.0535 -0.76855,2.27225 l -0.08,2.27224 h 0.84855 0.84855 z"
       id="path1030"
       inkscape:connector-curvature="0" />
    <path
       style="fill:#7d6eff;fill-opacity:0.07772019;stroke:#b1b1b1;stroke-width:0;stroke-miterlimit:4;stroke-dasharray:none;stroke-dashoffset:0;stroke-opacity:1"
       d="m 137.3644,307.31044 c 0,-2.23222 0.5452,-2.92764 2.2952,-2.92764 1.33771,0 2.10507,-0.57039 1.83944,-1.36728 -0.25067,-0.75201 0.24662,-2.06967 1.10508,-2.92813 0.85846,-0.85845 1.34362,-2.69716 1.07812,-4.08599 -0.28321,-1.48157 0.13275,-2.76133 1.00651,-3.09662 2.4862,-0.95406 1.6867,-3.24254 -2.29169,-6.55969 l -3.78091,-3.15248 2.64464,-2.85212 c 2.47061,-2.66445 2.52538,-2.9839 0.83235,-4.85467 -1.37162,-1.51564 -2.0188,-1.6684 -2.66164,-0.62827 -0.63329,1.02471 -1.5127,0.75109 -3.45719,-1.07565 -1.43432,-1.34747 -3.39044,-2.44995 -4.34694,-2.44995 -0.9565,0 -2.02445,-0.74364 -2.37324,-1.65254 -0.34877,-0.9089 -1.67029,-1.65254 -2.9367,-1.65254 -4.02672,0 -10.61241,-6.29528 -12.08394,-11.5511 -0.7623,-2.72265 -2.93604,-6.31547 -5.07576,-8.38938 -4.09346,-3.96754 -4.94071,-8.54105 -2.02979,-10.9569 3.69975,-3.07051 4.13712,-5.50405 1.49475,-8.31674 -1.36941,-1.45766 -3.15125,-2.65029 -3.95966,-2.65029 -1.16997,0 -1.20808,-0.50571 -0.1868,-2.47881 2.27341,-4.39222 3.14241,-6.29222 3.14241,-6.87065 0,-1.02491 -3.29652,-0.58981 -5.37748,0.70977 -1.21432,0.75835 -2.883431,0.91305 -4.116412,0.38153 -1.140646,-0.49172 -2.941488,-0.78668 -4.001869,-0.65547 -1.461217,0.18081 -1.927966,-0.5626 -1.927966,-3.07074 0,-1.82013 0.461106,-3.5943 1.02468,-3.94261 0.563575,-0.3483 0.87496,-1.98879 0.691967,-3.64552 -0.318044,-2.87944 -0.60188,-3.01224 -6.437491,-3.01224 -3.357628,0 -6.478335,-0.37183 -6.934905,-0.82628 -0.45657,-0.45445 0.161398,-0.82627 1.373263,-0.82627 3.078223,0 3.785744,-1.0346 2.434339,-3.55973 -0.816427,-1.5255 -1.955851,-2.01628 -3.843464,-1.65544 -1.475657,0.2821 -2.94832,0.0836 -3.272584,-0.44105 -1.010829,-1.63555 -2.932706,-1.04267 -2.264523,0.6986 0.348778,0.90889 0.153938,1.65254 -0.432978,1.65254 -0.586915,0 -1.082886,-0.86759 -1.102155,-1.92797 -0.03276,-1.80262 -0.133614,-1.79793 -1.551361,0.0722 -1.420498,1.87375 -1.818604,1.69845 -6.299707,-2.77408 -2.708696,-2.7035 -5.587361,-4.61733 -6.637019,-4.41249 -1.019499,0.19894 -2.40029,-0.65972 -3.068423,-1.90814 -0.807302,-1.50842 -2.310445,-2.26982 -4.481114,-2.26982 -1.796477,0 -3.266322,-0.48337 -3.266322,-1.07415 0,-0.59532 -1.410586,-0.79203 -3.164254,-0.44131 -2.745405,0.54909 -3.364324,0.18087 -4.675716,-2.78178 -1.542418,-3.48456 -2.703867,-4.28311 -3.36123,-2.31102 -0.244183,0.73255 -1.639553,0.73888 -4.150197,0.0188 -4.363272,-1.25137 -5.374113,-0.77407 -3.399513,1.60517 1.201765,1.44805 0.882181,1.67872 -2.321821,1.67594 -3.494569,-0.003 -3.720317,-0.2322 -3.798027,-3.85513 -0.104738,-4.88308 -3.893657,-9.06015 -9.182557,-10.12326 -3.563166,-0.71622 -3.081652,-0.90897 4.858399,-1.94483 7.809383,-1.01881 8.85272,-1.425 9.157272,-3.56503 0.252507,-1.77431 -0.577815,-2.89174 -3.129097,-4.21106 -1.910045,-0.98773 -4.171708,-1.52767 -5.025916,-1.19988 -0.87573,0.33605 -1.553106,-0.0696 -1.553106,-0.93017 0,-0.8394 -0.619704,-1.81763 -1.377119,-2.17388 -0.757415,-0.35625 0.110169,-0.35763 1.927966,-0.003 9.363053,1.82621 11.567797,1.83231 11.567797,0.0321 0,-0.97233 -0.531175,-1.76805 -1.180388,-1.76805 -2.266494,0 -4.289352,-2.90314 -2.953591,-4.2389 2.01186,-2.01186 -0.08306,-2.88448 -2.239558,-0.93287 -1.089145,0.98566 -4.562524,2.04915 -7.718618,2.36332 -5.430563,0.54057 -5.738354,0.43423 -5.738354,-1.98249 0,-1.40453 0.371822,-2.929 0.826271,-3.3877 0.454449,-0.4587 0.826272,-1.90468 0.826272,-3.21328 0,-1.789 0.767757,-2.4673 3.094727,-2.73414 1.7021,-0.19519 3.345347,-1.00799 3.651659,-1.80622 0.312837,-0.81524 1.494033,-1.20629 2.695039,-0.89222 1.175959,0.30753 2.916896,-0.0873 3.868748,-0.87717 1.426171,-1.18362 1.892714,-1.17406 2.651888,0.0543 0.765341,1.23835 1.527103,1.19718 4.501225,-0.24322 3.369144,-1.63173 6.36721,-1.48608 7.64097,0.37119 0.309035,0.45061 1.920264,1.16021 3.580508,1.57691 2.423715,0.60831 3.018626,0.37998 3.018626,-1.1585 0,-1.59307 0.684794,-1.80501 4.061697,-1.257 4.469213,0.72524 6.955252,-0.61362 6.955252,-3.7458 0,-2.64086 1.921585,-3.73888 3.80611,-2.17485 1.035412,0.85931 1.729359,0.88895 2.220149,0.0949 1.014684,-1.64179 7.190448,-1.45172 7.21095,0.22193 0.0112,0.91502 0.369254,0.82261 1.067044,-0.27543 0.873473,-1.37448 1.61211,-1.03865 4.389909,1.99597 1.836855,2.00666 3.339736,4.05294 3.339736,4.54729 0,0.49434 0.743644,1.51597 1.652543,2.27029 0.908898,0.75432 1.652542,2.30231 1.652542,3.43998 0,1.13767 0.508034,2.0685 1.128963,2.0685 0.62093,0 1.600184,1.2394 2.176122,2.75423 1.164028,3.06163 3.047468,3.60579 3.988895,1.15248 0.733501,-1.91149 7.881142,-6.39812 10.608567,-6.65909 1.06038,-0.10146 1.92796,0.46075 1.92796,1.24937 0,0.82192 0.70527,1.16321 1.65254,0.79972 0.9089,-0.34879 1.65255,-0.0854 1.65255,0.58542 0,0.67076 0.99152,1.21956 2.20339,1.21956 1.21186,0 2.20339,-0.5488 2.20339,-1.21956 0,-0.67076 0.69706,-0.95208 1.54903,-0.62515 0.85196,0.32693 2.41609,-0.36367 3.47583,-1.53467 2.0166,-2.22832 4.43654,-2.96692 3.20803,-0.97914 -1.73942,2.81444 1.96168,4.35852 10.4472,4.35852 4.67228,0 8.7914,-0.29634 9.1536,-0.65856 1.06314,-1.06312 -0.39356,-3.74822 -2.03344,-3.74822 -0.82851,0 -2.2778,-1.49176 -3.22065,-3.31503 -1.33241,-2.5766 -1.43878,-3.82979 -0.47754,-5.62588 2.40276,-4.48961 -1.09165,-22.98706 -5.50298,-29.12974 -2.87784,-4.007304 -3.37874,-5.690802 -3.37874,-11.355554 0,-5.171797 -0.42873,-6.90046 -1.92797,-7.773685 -3.68001,-2.143406 1.04738,-1.279456 5.92852,1.083462 3.63281,1.758611 5.19198,2.00808 6.88558,1.101694 3.28725,-1.759284 9.69811,-1.464146 10.44447,0.480836 0.34878,0.908899 0.21176,1.652543 -0.30448,1.652543 -2.38395,0 -2.08508,5.02789 0.50034,8.417567 1.49096,1.954735 2.71082,4.588111 2.71082,5.851947 0,1.9626 0.44207,2.18337 3.02966,1.51301 3.61952,-0.9377 3.80675,-0.92165 15.64633,1.34066 5.12136,0.97859 10.67407,2.48384 12.33936,3.34499 4.16032,2.15139 4.67962,2.06798 13.52112,-2.17159 4.28672,-2.05552 8.78557,-4.091 9.99743,-4.52329 2.07827,-0.741356 2.047,-0.848315 -0.55085,-1.883588 -5.31772,-2.119182 -6.0587,-2.843943 -5.85024,-5.722188 0.55943,-7.724302 9.91786,-13.767204 28.56277,-18.443485 9.35229,-2.345624 9.96183,-2.69529 17.04416,-9.777619 7.11401,-7.114011 7.43588,-7.297382 10.23484,-5.83086 2.58465,1.354237 2.88983,1.314317 2.88983,-0.378008 0,-1.04068 -0.90672,-2.915624 -2.01493,-4.166541 -1.81063,-2.043777 -1.96555,-3.93057 -1.52788,-18.607795 l 0.48706,-16.333398 4.25585,-3.082919 c 3.1654,-2.293002 6.59139,-3.437022 13.37109,-4.464932 5.01339,-0.760108 10.72329,-2.0353304 12.68867,-2.8338271 3.27673,-1.3312729 3.67468,-1.2626106 4.793,0.8269918 0.67076,1.2533423 0.93531,3.7001023 0.58788,5.4372463 -0.83575,4.178802 0.14503,6.441381 3.3146,7.646448 1.43219,0.544518 2.60398,1.728505 2.60398,2.631081 0,3.013154 3.88467,4.093311 6.76786,1.881848 1.4281,-1.095386 3.50767,-2.325029 4.62128,-2.73254 2.84018,-1.039336 6.15136,3.262037 6.2182,8.077739 0.0788,5.672496 1.27303,6.784424 7.78616,7.249216 6.45103,0.460358 7.61551,1.496343 7.64048,6.797395 0.0166,3.521072 2.31819,4.994227 3.8728,2.478813 1.30105,-2.105145 10.69244,-1.273153 13.30203,1.178441 2.28303,2.144798 2.32787,2.479041 0.75538,5.63118 -1.71182,3.431423 -1.47302,3.989815 2.46802,5.771173 0.60593,0.273883 -0.0516,1.507498 -1.46116,2.741369 -3.29712,2.886141 -2.23263,4.508346 2.95838,4.508346 2.26678,0 4.69332,0.571904 5.39231,1.270898 0.96008,0.960067 2.49593,0.803058 6.27967,-0.641967 3.90419,-1.491023 5.00876,-2.462502 5.00876,-4.405233 0,-2.575512 3.89674,-7.01622 5.10049,-5.812481 0.3741,0.374107 0.3119,1.569161 -0.13824,2.655676 -1.52325,3.676738 -1.43399,7.884705 0.1804,8.504202 0.86398,0.331543 1.48889,1.229143 1.38867,1.994668 -0.62582,4.780456 0.15549,6.118651 3.99269,6.838514 2.1526,0.403832 4.16735,1.394899 4.4772,2.202372 0.30986,0.807473 2.06453,1.768363 3.89927,2.13531 2.04328,0.408659 3.5562,1.509643 3.90445,2.841376 0.31271,1.19581 1.50656,2.471908 2.65301,2.835775 1.14644,0.363866 2.08444,1.619692 2.08444,2.790724 0,2.599054 1.88235,2.680573 7.74362,0.335354 4.29073,-1.716806 4.58721,-1.698269 6.90789,0.431905 3.67595,3.374177 9.24978,4.210852 11.92478,1.790003 1.79867,-1.627771 2.57189,-1.745 4.31784,-0.654635 1.16975,0.73052 3.40554,1.328217 4.96843,1.328217 4.29442,0 7.10354,1.954196 7.10354,4.941645 0,1.4634 0.6197,3.05719 1.37712,3.54175 0.75741,0.48455 2.21078,2.3683 3.2297,4.1861 2.13447,3.80797 5.19949,4.8784 6.63316,2.31658 1.35285,-2.41743 4.53588,-2.21664 6.93799,0.43765 2.42994,2.68506 7.37352,2.85322 11.53916,0.39252 2.96559,-1.75182 3.19992,-1.7084 7.18551,1.33156 3.19225,2.43485 5.51708,3.21651 10.32475,3.47143 3.41264,0.18095 8.01819,0.62218 10.23455,0.98051 l 4.02973,0.6515 -1.58596,3.79575 c -0.87229,2.08767 -1.32658,4.21547 -1.00954,4.72845 0.31704,0.51298 -0.65872,1.742 -2.16835,2.73114 -1.50962,0.98915 -2.74477,2.51924 -2.74477,3.4002 0,0.88095 -1.17186,2.36958 -2.60414,3.30804 -1.94157,1.27216 -2.81157,3.17067 -3.41941,7.46184 -0.4484,3.16554 -1.16512,8.23435 -1.59272,11.26401 -0.42759,3.02966 -1.7759,7.49153 -2.99624,9.91526 -1.64789,3.27289 -2.02859,5.47846 -1.47957,8.57181 0.40668,2.29134 0.0436,8.19321 -0.80713,13.11924 -1.33098,7.70708 -1.32944,9.17109 0.011,10.51149 1.24,1.24 1.30689,2.27071 0.32826,5.05873 -1.93387,5.50928 -2.74338,6.25568 -6.78475,6.25568 -2.63524,0 -3.79091,-0.50379 -3.79091,-1.65255 0,-2.74285 -4.0886,-1.86458 -8.22438,1.76667 -4.65427,4.08651 -4.88927,5.39435 -0.96928,5.39435 2.76389,0 2.82457,0.11096 1.1017,2.01472 -1.00282,1.10809 -1.8233,2.78557 -1.8233,3.72773 0,0.94216 -1.98305,3.5046 -4.40678,5.69429 -2.42373,2.18969 -4.40678,4.71476 -4.40678,5.61126 0,2.2934 -2.48642,3.71582 -23.96605,13.71026 -85.07861,39.58692 -177.80007,62.33929 -268.25853,65.82636 l -18.45339,0.71135 z m 108.85274,-146.4234 c 0.39693,-6.18589 3.17008,-7.4159 3.72577,-1.65255 0.31757,3.29368 0.68794,3.60861 4.62333,3.93119 3.59853,0.29497 4.16729,0.0619 3.5805,-1.46722 -0.38367,-0.99985 -0.69759,-3.01676 -0.69759,-4.48204 0,-1.84547 -0.61845,-2.66413 -2.01259,-2.66413 -1.60953,0 -1.91544,0.66189 -1.5275,3.30509 0.29119,1.98394 -0.006,3.30508 -0.74165,3.30508 -0.67471,0 -1.22673,-1.43737 -1.22673,-3.19415 0,-3.00972 -0.30214,-3.22146 -5.23305,-3.66707 -6.66217,-0.60207 -8.11095,0.54288 -7.8438,6.19886 0.27772,5.87976 0.60865,6.36164 4.09191,5.95855 2.65182,-0.30688 2.95703,-0.82829 3.2614,-5.57161 z m -28.86198,0.73616 c -0.3678,-0.95845 -0.66872,-3.93303 -0.66872,-6.61017 0,-3.15955 -0.48322,-4.86752 -1.37712,-4.86752 -0.94868,0 -1.37712,2.0565 -1.37712,6.61017 0,5.70602 0.27983,6.61017 2.04584,6.61017 1.41291,0 1.83895,-0.53913 1.37712,-1.74265 z m 19.83051,0 c -0.36781,-0.95845 -0.66872,-2.88847 -0.66872,-4.28891 0,-2.92728 -1.72137,-3.8809 -5.64979,-3.12993 -2.33565,0.44649 -2.68394,1.01719 -2.28395,3.74246 0.28038,1.91037 -0.026,3.21564 -0.75478,3.21564 -0.67471,0 -1.22674,-1.1787 -1.22674,-2.61935 0,-3.34417 -2.55504,-5.47904 -5.4556,-4.55845 -2.47505,0.78556 -3.06998,2.71963 -0.87914,2.858 1.10169,0.0696 1.10169,0.19811 0,0.64265 -1.46086,0.58947 -1.87589,3.91285 -0.64265,5.14607 0.40394,0.40396 4.67097,0.73447 9.48227,0.73447 7.52424,0 8.65428,-0.24375 8.0791,-1.74265 z m 29.67319,0.56766 c 1.09808,-1.77674 -0.33764,-2.61443 -2.04801,-1.19495 -0.82781,0.68702 -1.83131,0.92292 -2.23001,0.52423 -1.48875,-1.48875 -0.63907,-2.56107 2.02933,-2.56107 3.31342,0 3.70622,-2.71808 0.63065,-4.36407 -4.30432,-2.3036 -8.02181,2.02036 -5.61056,6.52585 1.27927,2.3903 5.98235,3.08649 7.2286,1.07001 z m 15.4963,-0.56766 c -0.3678,-0.95845 -0.66872,-3.93303 -0.66872,-6.61017 0,-3.68523 -0.41943,-4.86752 -1.72679,-4.86752 -1.25934,0 -1.52561,0.63381 -0.98366,2.34136 0.51453,1.62114 0.35308,2.10029 -0.52486,1.55769 -1.9518,-1.20627 -4.47656,1.53801 -4.47656,4.86579 0,3.87291 0.68767,4.4555 5.25912,4.4555 3.00353,0 3.65139,-0.36169 3.12147,-1.74265 z m 13.64144,0.10444 c 1.6865,-2.03212 0.63569,-6.70021 -1.71097,-7.6007 -2.63332,-1.01051 -5.98902,1.28661 -5.98902,4.09972 0,4.6676 4.8875,6.88981 7.69999,3.50098 z m 11.24916,0.31618 c -0.72712,-0.72712 -1.32203,-3.7017 -1.32203,-6.61017 0,-4.90621 -0.19892,-5.28814 -2.75424,-5.28814 -1.51483,0 -2.75424,0.49576 -2.75424,1.1017 0,0.60593 0.74365,1.10169 1.65255,1.10169 1.19349,0 1.65254,1.22411 1.65254,4.40678 0,2.42373 -0.49576,4.40678 -1.1017,4.40678 -0.60593,0 -1.10169,-1.48729 -1.10169,-3.30508 0,-2.71881 -0.43971,-3.28967 -2.47882,-3.21811 -1.36334,0.0478 -1.85911,0.33703 -1.10169,0.64265 1.62989,0.65768 1.87451,5.88054 0.27542,5.88054 -0.60593,0 -1.10169,0.49576 -1.10169,1.1017 0,0.60593 2.57796,1.10169 5.72881,1.10169 4.45574,0 5.43503,-0.29379 4.40678,-1.32203 z m -20.05085,-8.5282 c 0,-1.17611 -0.49576,-2.44477 -1.10169,-2.81926 -0.62484,-0.38617 -1.1017,0.53941 -1.1017,2.13837 0,1.55059 0.49577,2.81926 1.1017,2.81926 0.60593,0 1.10169,-0.96227 1.10169,-2.13837 z m 12.11865,-2.26841 c 0,-0.60594 -0.49576,-1.1017 -1.1017,-1.1017 -0.60593,0 -1.10169,0.49576 -1.10169,1.1017 0,0.60593 0.49576,1.10169 1.10169,1.10169 0.60594,0 1.1017,-0.49576 1.1017,-1.10169 z"
       id="path1034"
       inkscape:connector-curvature="0" />
  </g>
  <g
     inkscape:groupmode="layer"
     id="layer1"
     inkscape:label="Dialectes"
     style="display:inline">
    <text
       xml:space="preserve"
       style="font-style:normal;font-weight:normal;font-size:100px;line-height:10px;font-family:'Bitstream Vera Sans';letter-spacing:0px;word-spacing:0px;fill:#aa0000;fill-opacity:1;stroke:none;stroke-width:0.40000001;stroke-linecap:butt;stroke-linejoin:miter;stroke-miterlimit:4;stroke-dasharray:none;stroke-opacity:1"
       x="242.37288"
       y="499.61865"
       id="text4506"><tspan
         sodipodi:role="line"
         id="tspan4504"
         x="242.37288"
         y="499.61865"
         style="font-size:13.33333302px;fill:#aa0000;stroke:none;stroke-width:0.40000001;stroke-miterlimit:4;stroke-dasharray:none;stroke-opacity:1">catalan</tspan></text>
    <text
       xml:space="preserve"
       style="font-style:normal;font-weight:normal;font-size:13.33333302px;line-height:10px;font-family:'Bitstream Vera Sans';letter-spacing:0px;word-spacing:0px;fill:#000080;fill-opacity:1;stroke:none;stroke-width:0.40000001;stroke-linecap:butt;stroke-linejoin:miter;stroke-miterlimit:4;stroke-dasharray:none;stroke-opacity:1"
       x="364.11017"
       y="214.83051"
       id="text4514"><tspan
         sodipodi:role="line"
         id="tspan4512"
         x="364.11017"
         y="214.83051"
         style="fill:#000080;stroke:none;stroke-width:0.40000001;stroke-miterlimit:4;stroke-dasharray:none;stroke-opacity:1">franc-comtois</tspan></text>
    <text
       xml:space="preserve"
       style="font-style:normal;font-weight:normal;font-size:13.33333302px;line-height:10px;font-family:'Bitstream Vera Sans';letter-spacing:0px;word-spacing:0px;fill:#225500;fill-opacity:1;stroke:none;stroke-width:0.40000001;stroke-linecap:butt;stroke-linejoin:miter;stroke-miterlimit:4;stroke-dasharray:none;stroke-opacity:1;"
       x="409.83051"
       y="267.16101"
       id="text4518"><tspan
         sodipodi:role="line"
         id="tspan4516"
         x="409.83051"
         y="267.16101"
         style="fill:#225500;stroke:none;stroke-width:0.40000001;stroke-miterlimit:4;stroke-dasharray:none;stroke-opacity:1;">genevois</tspan></text>
    <text
       xml:space="preserve"
       style="font-style:normal;font-weight:normal;font-size:13.33333302px;line-height:10px;font-family:'Bitstream Vera Sans';letter-spacing:0px;word-spacing:0px;fill:#aa0000;fill-opacity:1;stroke:none;stroke-width:0.40000001;stroke-linecap:butt;stroke-linejoin:miter;stroke-miterlimit:4;stroke-dasharray:none;stroke-opacity:1"
       x="242.37288"
       y="432.96609"
       id="text4522"><tspan
         sodipodi:role="line"
         id="tspan4520"
         x="242.37288"
         y="432.96609"
         style="fill:#aa0000;stroke:none;stroke-width:0.40000001;stroke-miterlimit:4;stroke-dasharray:none;stroke-opacity:1">languedocien</tspan></text>
    <text
       xml:space="preserve"
       style="font-style:normal;font-weight:normal;font-size:13.33333302px;line-height:10px;font-family:'Bitstream Vera Sans';letter-spacing:0px;word-spacing:0px;fill:#aa0000;fill-opacity:1;stroke:none;stroke-width:0.40000001;stroke-linecap:butt;stroke-linejoin:miter;stroke-miterlimit:4;stroke-dasharray:none;stroke-opacity:1"
       x="161.94914"
       y="405.97458"
       id="text4526"><tspan
         sodipodi:role="line"
         id="tspan4524"
         x="161.94914"
         y="405.97458"
         style="fill:#aa0000;stroke:none;stroke-width:0.40000001;stroke-miterlimit:4;stroke-dasharray:none;stroke-opacity:1">gascon</tspan></text>
    <text
       xml:space="preserve"
       style="font-style:normal;font-weight:normal;font-size:13.33333302px;line-height:10px;font-family:'Bitstream Vera Sans';letter-spacing:0px;word-spacing:0px;fill:#000080;fill-opacity:1;stroke:none;stroke-width:0.40000001;stroke-linecap:butt;stroke-linejoin:miter;stroke-miterlimit:4;stroke-dasharray:none;stroke-opacity:1"
       x="150.93221"
       y="300.21185"
       id="text4534"><tspan
         sodipodi:role="line"
         id="tspan4532"
         x="150.93221"
         y="300.21185"
         style="fill:#000080;stroke:none;stroke-width:0.40000001;stroke-miterlimit:4;stroke-dasharray:none;stroke-opacity:1">saintongeais</tspan></text>
    <text
       xml:space="preserve"
       style="font-style:normal;font-weight:normal;font-size:13.33333302px;line-height:10px;font-family:'Bitstream Vera Sans';letter-spacing:0px;word-spacing:0px;fill:#aa0000;fill-opacity:1;stroke:none;stroke-width:0.40000001;stroke-linecap:butt;stroke-linejoin:miter;stroke-miterlimit:4;stroke-dasharray:none;stroke-opacity:1"
       x="231.9068"
       y="337.66946"
       id="text4542"><tspan
         sodipodi:role="line"
         id="tspan4540"
         x="231.9068"
         y="337.66946"
         style="fill:#aa0000;stroke:none;stroke-width:0.40000001;stroke-miterlimit:4;stroke-dasharray:none;stroke-opacity:1">limousin</tspan></text>
    <text
       xml:space="preserve"
       style="font-style:normal;font-weight:normal;font-size:13.33333302px;line-height:10px;font-family:'Bitstream Vera Sans';letter-spacing:0px;word-spacing:0px;fill:#000080;fill-opacity:1;stroke:none;stroke-width:0.40000001;stroke-linecap:butt;stroke-linejoin:miter;stroke-miterlimit:4;stroke-dasharray:none;stroke-opacity:1"
       x="147.07626"
       y="249.53389"
       id="text4546"><tspan
         sodipodi:role="line"
         id="tspan4544"
         x="147.07626"
         y="249.53389"
         style="fill:#000080;stroke:none;stroke-width:0.40000001;stroke-miterlimit:4;stroke-dasharray:none;stroke-opacity:1">poitevin</tspan></text>
    <text
       xml:space="preserve"
       style="font-style:normal;font-weight:normal;font-size:13.33333302px;line-height:10px;font-family:'Bitstream Vera Sans';letter-spacing:0px;word-spacing:0px;fill:#000080;fill-opacity:1;stroke:none;stroke-width:0.40000001;stroke-linecap:butt;stroke-linejoin:miter;stroke-miterlimit:4;stroke-dasharray:none;stroke-opacity:1"
       x="147.62712"
       y="203.81355"
       id="text4550"><tspan
         sodipodi:role="line"
         id="tspan4548"
         x="147.62712"
         y="203.81355"
         style="fill:#000080;stroke:none;stroke-width:0.40000001;stroke-miterlimit:4;stroke-dasharray:none;stroke-opacity:1">angevin</tspan></text>
    <text
       xml:space="preserve"
       style="font-style:normal;font-weight:normal;font-size:13.33333302px;line-height:10px;font-family:'Bitstream Vera Sans';letter-spacing:0px;word-spacing:0px;fill:#000080;fill-opacity:1;stroke:none;stroke-width:0.40000001;stroke-linecap:butt;stroke-linejoin:miter;stroke-miterlimit:4;stroke-dasharray:none;stroke-opacity:1"
       x="177.37288"
       y="129.44914"
       id="text4554"><tspan
         sodipodi:role="line"
         id="tspan4552"
         x="177.37288"
         y="129.44914"
         style="fill:#000080;stroke:none;stroke-width:0.40000001;stroke-miterlimit:4;stroke-dasharray:none;stroke-opacity:1">normand</tspan></text>
    <text
       xml:space="preserve"
       style="font-style:normal;font-weight:normal;font-size:13.33333302px;line-height:10px;font-family:'Bitstream Vera Sans';letter-spacing:0px;word-spacing:0px;fill:#000080;fill-opacity:1;stroke:none;stroke-width:0.40000001;stroke-linecap:butt;stroke-linejoin:miter;stroke-miterlimit:4;stroke-dasharray:none;stroke-opacity:1"
       x="266.05933"
       y="75.466103"
       id="text4558"><tspan
         sodipodi:role="line"
         id="tspan4556"
         x="266.05933"
         y="75.466103"
         style="fill:#000080;stroke:none;stroke-width:0.40000001;stroke-miterlimit:4;stroke-dasharray:none;stroke-opacity:1">picard</tspan></text>
    <text
       xml:space="preserve"
       style="font-style:normal;font-weight:normal;font-size:13.33333302px;line-height:10px;font-family:'Bitstream Vera Sans';letter-spacing:0px;word-spacing:0px;fill:#000080;fill-opacity:1;stroke:none;stroke-width:0.40000001;stroke-linecap:butt;stroke-linejoin:miter;stroke-miterlimit:4;stroke-dasharray:none;stroke-opacity:1"
       x="310.67795"
       y="138.81357"
       id="text4562"><tspan
         sodipodi:role="line"
         id="tspan4560"
         x="310.67795"
         y="138.81357"
         style="fill:#000080;stroke:none;stroke-width:0.40000001;stroke-miterlimit:4;stroke-dasharray:none;stroke-opacity:1">champenois</tspan></text>
    <text
       xml:space="preserve"
       style="font-style:normal;font-weight:normal;font-size:13.33333302px;line-height:10px;font-family:'Bitstream Vera Sans';letter-spacing:0px;word-spacing:0px;fill:#000080;fill-opacity:1;stroke:none;stroke-width:0.40000001;stroke-linecap:butt;stroke-linejoin:miter;stroke-miterlimit:4;stroke-dasharray:none;stroke-opacity:1"
       x="390.55084"
       y="161.3983"
       id="text4566"><tspan
         sodipodi:role="line"
         id="tspan4564"
         x="390.55084"
         y="161.3983"
         style="fill:#000080;stroke:none;stroke-width:0.40000001;stroke-miterlimit:4;stroke-dasharray:none;stroke-opacity:1">lorrain</tspan></text>
    <text
       xml:space="preserve"
       style="font-style:normal;font-weight:normal;font-size:13.33333302px;line-height:10px;font-family:'Bitstream Vera Sans';letter-spacing:0px;word-spacing:0px;fill:#000080;fill-opacity:1;stroke:none;stroke-width:0.40000001;stroke-linecap:butt;stroke-linejoin:miter;stroke-miterlimit:4;stroke-dasharray:none;stroke-opacity:1"
       x="345.60648"
       y="62.481308"
       id="text4570"><tspan
         sodipodi:role="line"
         id="tspan4568"
         x="345.60648"
         y="62.481308"
         style="fill:#000080;stroke:none;stroke-width:0.40000001;stroke-miterlimit:4;stroke-dasharray:none;stroke-opacity:1">wallon</tspan></text>
    <text
       xml:space="preserve"
       style="font-style:normal;font-weight:normal;font-size:13.33333302px;line-height:10px;font-family:'Bitstream Vera Sans';letter-spacing:0px;word-spacing:0px;fill:#000080;fill-opacity:1;stroke:none;stroke-width:0.40000001;stroke-linecap:butt;stroke-linejoin:miter;stroke-miterlimit:4;stroke-dasharray:none;stroke-opacity:1"
       x="318.66525"
       y="250.36018"
       id="text4574"><tspan
         sodipodi:role="line"
         id="tspan4572"
         x="318.66525"
         y="250.36018"
         style="fill:#000080;stroke:none;stroke-width:0.40000001;stroke-miterlimit:4;stroke-dasharray:none;stroke-opacity:1">bourguignon</tspan></text>
    <text
       xml:space="preserve"
       style="font-style:normal;font-weight:normal;font-size:13.33333302px;line-height:10px;font-family:'Bitstream Vera Sans';letter-spacing:0px;word-spacing:0px;fill:#000080;fill-opacity:1;stroke:none;stroke-width:0.40000001;stroke-linecap:butt;stroke-linejoin:miter;stroke-miterlimit:4;stroke-dasharray:none;stroke-opacity:1"
       x="244.57626"
       y="235.76271"
       id="text4578"><tspan
         sodipodi:role="line"
         id="tspan4576"
         x="244.57626"
         y="235.76271"
         style="fill:#000080;stroke:none;stroke-width:0.40000001;stroke-miterlimit:4;stroke-dasharray:none;stroke-opacity:1">berrichon</tspan></text>
    <text
       xml:space="preserve"
       style="font-style:normal;font-weight:normal;font-size:13.33333302px;line-height:10px;font-family:'Bitstream Vera Sans';letter-spacing:0px;word-spacing:0px;fill:#aa0000;fill-opacity:1;stroke:none;stroke-width:0.40000001;stroke-linecap:butt;stroke-linejoin:miter;stroke-miterlimit:4;stroke-dasharray:none;stroke-opacity:1"
       x="396.61017"
       y="423.05084"
       id="text4586"><tspan
         sodipodi:role="line"
         id="tspan4584"
         x="396.61017"
         y="423.05084"
         style="fill:#aa0000;stroke:none;stroke-width:0.40000001;stroke-miterlimit:4;stroke-dasharray:none;stroke-opacity:1">provençal</tspan></text>
  </g>
</svg>
